<svg xmlns="http://www.w3.org/2000/svg" width="16" height="16" viewBox="0 0 16 16">
  <g id="Group_13893" data-name="Group 13893" transform="translate(-24 -20.29)">
    <rect id="Rectangle_1943" data-name="Rectangle 1943" width="16" height="16" transform="translate(24 20.29)" fill="none"/>
    <g id="property" transform="translate(26 21)">
      <path id="Union_7" data-name="Union 7" d="M.461,14a.489.489,0,0,1,0-.976h.769V3.093a3.505,3.505,0,0,1,.6-2.456A3.052,3.052,0,0,1,4.154,0H7.846a3.052,3.052,0,0,1,2.321.638,3.505,3.505,0,0,1,.6,2.456v9.931h.769a.489.489,0,0,1,0,.976ZM6.616,9.768a1.7,1.7,0,0,1,1.324.39,1.949,1.949,0,0,1,.369,1.4v1.465H9.846V3.093c0-1-.1-1.516-.332-1.765S8.8.977,7.846.977H4.154c-.949,0-1.432.1-1.668.351s-.332.761-.332,1.765v9.931H3.692V11.559a1.949,1.949,0,0,1,.369-1.4,1.7,1.7,0,0,1,1.324-.39Zm-1.9,1.081c-.044.047-.1.209-.1.71v1.465H7.385V11.559c0-.5-.054-.663-.1-.71s-.2-.1-.671-.1H5.385C4.911,10.744,4.758,10.8,4.714,10.848Zm.363-2.383a.489.489,0,0,1,0-.977H6.923a.489.489,0,0,1,0,.977Zm0-2.279a.489.489,0,0,1,0-.977H6.923a.489.489,0,0,1,0,.977Zm0-2.279a.489.489,0,0,1,0-.976H6.923a.489.489,0,0,1,0,.976Z" transform="translate(0 0.29)" fill="#323e48"/>
    </g>
  </g>
</svg>
