<svg xmlns="http://www.w3.org/2000/svg" width="16" height="16" viewBox="0 0 16 16">
  <g id="Group_13884" data-name="Group 13884" transform="translate(-321.796 -7.391)">
    <path id="Union_10" data-name="Union 10" d="M6.844,16a26.325,26.325,0,0,1-3.531-.132,3.519,3.519,0,0,1-2.244-1.055C0,13.646,0,11.947,0,8.564V8.181C0,4.8,0,3.1,1.068,1.931a3.115,3.115,0,0,1,1.507-.9V.558a.552.552,0,1,1,1.1,0V.83C4.509.744,5.516.744,6.844.744h1.4c1.328,0,2.336,0,3.164.086V.558a.552.552,0,1,1,1.1,0v.473a3.115,3.115,0,0,1,1.507.9C15.086,3.1,15.086,4.8,15.086,8.181v.383c0,3.384,0,5.082-1.068,6.25a3.519,3.519,0,0,1-2.245,1.055A26.32,26.32,0,0,1,8.242,16ZM1.1,8.181v.383c0,3.092,0,4.645.774,5.491.729.8,1.972.828,4.965.828h1.4c2.994,0,4.237-.031,4.965-.828.775-.847.775-2.4.775-5.491V8.181c0-1.026,0-1.882-.028-2.6H1.132C1.1,6.3,1.1,7.155,1.1,8.181ZM13.87,4.465a3.084,3.084,0,0,0-.663-1.776,1.911,1.911,0,0,0-.718-.489.551.551,0,0,1-1.083-.153V1.955a30.8,30.8,0,0,0-3.164-.094h-1.4a30.8,30.8,0,0,0-3.164.094v.092A.551.551,0,0,1,2.6,2.2a1.908,1.908,0,0,0-.718.489,3.084,3.084,0,0,0-.663,1.776Zm-6.334,8a.744.744,0,0,1,0-1.488h.007a.744.744,0,0,1,0,1.488Zm-2.937,0a.744.744,0,0,1,0-1.488h.007a.744.744,0,0,1,0,1.488Zm5.874-2.976a.744.744,0,0,1,0-1.489h.007a.744.744,0,0,1,0,1.489Zm-2.937,0A.744.744,0,0,1,7.536,8h.007a.744.744,0,0,1,0,1.489Zm-2.937,0A.744.744,0,0,1,4.6,8h.007a.744.744,0,0,1,0,1.489Z" transform="translate(322.253 7.391)" fill="#3c4955"/>
    <rect id="Rectangle_2229" data-name="Rectangle 2229" width="16" height="16" transform="translate(321.796 7.391)" fill="none"/>
  </g>
</svg>
