<svg xmlns="http://www.w3.org/2000/svg" width="24" height="24" viewBox="0 0 24 24">
  <g id="Group_11801" data-name="Group 11801" transform="translate(-1680 -96)">
    <path id="Union_23" data-name="Union 23" d="M-1242.094,3622.332a6.01,6.01,0,0,1-1.818-3.215c-.468-2.25.934-4.73,3.727-9.672s4.2-7.434,6.355-8.15a5.808,5.808,0,0,1,1.829-.3,5.779,5.779,0,0,1,1.829.3c2.155.715,3.558,3.2,6.353,8.146s4.2,7.425,3.728,9.675a6,6,0,0,1-1.818,3.215c-1.685,1.549-4.495,1.549-10.093,1.549S-1240.409,3623.881-1242.094,3622.332Zm8.793-19.447c-1.544.512-2.923,2.952-5.424,7.381-2.589,4.579-3.887,6.877-3.547,8.51a4.329,4.329,0,0,0,1.313,2.323c1.2,1.108,3.958,1.108,8.96,1.108s7.755,0,8.959-1.108a4.334,4.334,0,0,0,1.312-2.323c.34-1.633-.959-3.931-3.544-8.507-2.5-4.432-3.883-6.872-5.426-7.384a4.128,4.128,0,0,0-1.3-.21A4.121,4.121,0,0,0-1233.3,3602.885Zm1.291,15.136a1.116,1.116,0,0,1-1.116-1.117,1.116,1.116,0,0,1,1.116-1.116h.01a1.116,1.116,0,0,1,1.116,1.116,1.117,1.117,0,0,1-1.116,1.117Zm-.829-4.465v-4.466a.838.838,0,0,1,.838-.837.838.838,0,0,1,.837.837v4.466a.838.838,0,0,1-.837.837A.838.838,0,0,1-1232.838,3613.557Z" transform="translate(2924 -3504.44)" fill="#ae2d3c"/>
    <rect id="Rectangle_2224" data-name="Rectangle 2224" width="24" height="24" transform="translate(1680 96)" fill="none"/>
  </g>
</svg>
